<svg xmlns="http://www.w3.org/2000/svg" width="800" height="800" viewBox="-102.51 0 431.447 431.447" xmlns:v="https://vecta.io/nano"><path d="M122.1,350.914c-.715,2.288-2.125,8.911-2.321,10.406-.748,5.719-2,15.289-1.37,18.445.779,3.9,2.514,7.919,6.1,9.624s8.551.493,10.308-3.073l.129-.262.068,1.266c.206,3.85,3.6,9.8,5.194,11.259a6.069,6.069,0,0,0,5.981,1.488c2.067-.759,3.314-2.824,4.335-4.775a29.912,29.912,0,0,0,2.529-8.454" fill="#fff"/><g fill="#211715"><path d="M150.658 386.838c-.05.447.052-.218-.037.257l-.137.729-.4 1.681a34.467 34.467 0 0 1-1.063 3.3l-.183.475c.068-.163-.135.3-.176.388l-.713 1.351a7.556 7.556 0 0 1-1.8 2.352c-.058.049-.65.4-.722.423l-.386.113c.011 0-.409.068-.205.044-.012 0-.541 0-.741-.016.29.029-.449-.111-.547-.14a2.784 2.784 0 0 1-.44-.15 4.9 4.9 0 0 1-1.2-.764c-.2-.189-.374-.4-.558-.6-.288-.318.221.326-.046-.059l-.391-.558a26.169 26.169 0 0 1-1.462-2.469 20.338 20.338 0 0 1-1.345-3.038l-.486-1.633-.164-.784-.021-.112c.038.314-.018-.31-.018-.307a2.457 2.457 0 0 0-2.4-2.4 2.42 2.42 0 0 0-2.4 2.4 20.55 20.55 0 0 0 2.347 7.625 18.428 18.428 0 0 0 3.55 5.331 8.391 8.391 0 0 0 9.134 1.766c2.506-1.154 4.189-3.783 5.28-6.224a30.308 30.308 0 0 0 2.528-8.98 2.415 2.415 0 0 0-2.4-2.4 2.455 2.455 0 0 0-2.4 2.4z"/><path d="M137.42 368.4a38.7 38.7 0 0 1-3.213 13.878 14.016 14.016 0 0 1-2.17 3.89 5.721 5.721 0 0 1-5.05 1.512 6.882 6.882 0 0 1-4.767-3.961 15.342 15.342 0 0 1-1.215-3.348l-.208-.887c.04.189-.163-.889-.088-.39.062.412-.022-.267-.022-.279l-.037-.692c-.167-4.791.612-9.671 1.219-14.41l.231-1.785c.126-.981-.057.317.031-.221l.085-.5c.181-1.028.4-2.05.611-3.071.467-2.2.929-4.423 1.587-6.576.905-2.96-3.727-4.226-4.629-1.276a78.229 78.229 0 0 0-2.63 12.767l-.978 8.46a42.332 42.332 0 0 0-.29 7.309c.448 5.5 3.531 11.743 9.2 13.343a11.05 11.05 0 0 0 8.111-.9 11.227 11.227 0 0 0 4.543-5.191 42.228 42.228 0 0 0 4.479-17.672c.029-3.09-4.771-3.092-4.8 0z"/></g><g fill="#fff"><path d="M132.427,371.6a79.86,79.86,0,0,1,10.443,17.053c3.207,7.109,4.845,12.822,8.206,17.654,4.125,7.542,17.1,13.867,28.628,22.535,4.809,2.334,45.571-15.893,44.3-22.948,0,0-.121-1.166-.183-1.355-10.623-34.851-7.8-55.139-23.029-88.152a18.3,18.3,0,0,0-8.549-8.8c-11.727-5.724-21.833-7.249-33.539-13.072q-1.487-.739-2.958-1.509c-3.142-1.64-9.827-.682-14.789-.178V322.7a18.065,18.065,0,0,1,4.667.337,9.164,9.164,0,0,1,2.6.851,8.744,8.744,0,0,1,1.965,1.787,70.852,70.852,0,0,0,16.457,13.8q-1.782,3.213-3.5,6.463l-2.112,3.383-1.406-.246c-16.2-1.915-29.172-13.656-43.133-22.086-4.086-2.468-9.486-4.656-13.283-1.417a7.692,7.692,0,0,0-2.539,5.595c-.155,3.818,1.744,7.167,3.851,10.2,8.978,12.916,18.068,17.958,27.9,30.237"/><path d="M29.511 250.961l-.124 23.575-.113 74.37a5.7 5.7 0 0 0 5.666 5.721l44.653.313 59.074.1a5.707 5.707 0 0 0 5.717-5.7l.2-98.285m-93.997-.355l-.037 25.452-.183 76.577"/><path d="M65.113 250.7l-.036 25.452-.184 76.577"/></g><g fill="#211715"><path d="M50.557 250.7l-.037 25.452-.153 78.592 14.527.111.189-104.152"/><path d="M27.209 250.3l-.059 20.664q-.06 17.591-.125 35.181-.06 16.314-.118 32.629l-.033 9.875a8.228 8.228 0 0 0 6.406 8.191 27.283 27.283 0 0 0 5.066.208l5.067.038 36.73.251q18.23.006 36.457.062 9.861.02 19.722.036a15.1 15.1 0 0 0 4.819-.383 8.241 8.241 0 0 0 4.611-3.764c1.163-2.1 1.033-4.4 1.034-6.7q.007-14.343-.016-28.687-.018-18.586-.042-37.174-.017-13.827-.03-27.656 0-1.626 0-3.251c0-3.088-4.8-3.093-4.8 0q0 11.012.022 22.021.021 17.841.042 35.682.016 16.22.026 32.44 0 2.822 0 5.643a22.728 22.728 0 0 1-.081 4.452c-.659 3.132-4.24 2.58-6.635 2.576l-9.331-.016q-19.9-.037-39.793-.074l-31.258-.168-10.81-.084-5.129-.038a37.766 37.766 0 0 1-4.375-.041 3.355 3.355 0 0 1-2.743-2.274 7.471 7.471 0 0 1-.154-2.353q.006-2.243.014-4.487.05-14.772.106-29.545.065-17.754.128-35.51.043-12.538.079-25.077 0-1.333 0-2.666c0-3.089-4.8-3.094-4.8 0zm154.34 90.419c-3.99.477-7.522 2.134-11.137 3.793-3.183 1.461-6.363 2.74-9.863 2.279a2.413 2.413 0 0 0-2.4 2.4 2.461 2.461 0 0 0 2.4 2.4c3.891.513 7.616-.852 11.112-2.4 3.165-1.4 6.435-3.256 9.888-3.669a2.474 2.474 0 0 0 2.4-2.4 2.415 2.415 0 0 0-2.4-2.4z"/><path d="M169.787,329.184q-4.547,7.662-8.709,15.542a2.4,2.4,0,0,0,4.144,2.422q4.162-7.877,8.709-15.541a2.4,2.4,0,1,0-4.144-2.423Z"/><path d="M167.3 337.059a66.664 66.664 0 0 1-10.32-7.875l-4.608-4.672a15.183 15.183 0 0 0-2.656-2.512 10.215 10.215 0 0 0-3.453-1.271 2.453 2.453 0 0 0-2.953 1.676 2.427 2.427 0 0 0 1.677 2.952 5.387 5.387 0 0 1 2.465.936 30.847 30.847 0 0 1 2.254 2.4l4.62 4.57a73.386 73.386 0 0 0 10.552 7.944c2.629 1.639 5.041-2.512 2.423-4.145zm-21.047-42.366c2.531-.212 5.546-.624 7.994.274 1.222.448 2.475 1.243 3.689 1.837q2.154 1.055 4.363 1.989c5.517 2.344 11.227 4.129 16.887 6.084 2.807.97 5.6 1.986 8.329 3.168a25.719 25.719 0 0 1 7.111 3.987 17.747 17.747 0 0 1 4.294 6q1.857 4.038 3.477 8.18a175.779 175.779 0 0 1 8.473 29.764l5.526 29.347c1.2 5.611 2.581 11.185 4.176 16.7q.325 1.125.662 2.246c.091.3.2.6.275.91.114.443-.044-.338.027.106.064.406.118.836.153 1.244-.085-.986-.051-.3-.071-.063.073-.871.053-.368-.032-.111-.166.5.317-.444.033-.064-.24.318-.418.7-.653 1.032.458-.639-.011-.008-.139.137-.145.164-.3.324-.449.481-.4.407-.814.792-1.243 1.164q-.3.261-.613.514c-.127.1-.747.591-.322.263a43.01 43.01 0 0 1-1.8 1.308 85.234 85.234 0 0 1-8.121 4.891 130.968 130.968 0 0 1-18.229 8.193 52.656 52.656 0 0 1-7.217 2.141c-.266.054-1.7.212-.788.152-.389.026-.773.063-1.163.078a2.606 2.606 0 0 0-.412-.019c-.226.047.682.156.176.01-.621-.18.866.692-.1-.144-.63-.545-1.364-1.005-2.04-1.49-4.75-3.4-9.712-6.486-14.515-9.807-3.567-2.468-7.565-5.216-10.031-8.784a65.635 65.635 0 0 1-6.45-12.919 98.559 98.559 0 0 0-8.081-16.225 88.011 88.011 0 0 0-5.308-7.363 2.415 2.415 0 0 0-3.4 0 2.459 2.459 0 0 0 0 3.394 78.406 78.406 0 0 1 9.7 15.754c2.4 5.158 4.112 10.65 6.841 15.652a34.392 34.392 0 0 0 8.849 10.607c4.5 3.6 9.387 6.663 14.172 9.855 2.652 1.769 5.245 3.609 7.832 5.471a4.663 4.663 0 0 0 2.909.807 24.527 24.527 0 0 0 6.692-1.342 124.246 124.246 0 0 0 19.043-7.841c5.638-2.8 11.516-5.885 16.205-10.156 1.588-1.447 3.264-3.307 3.434-5.553a3.926 3.926 0 0 0 .023-.42c0-.055-.011-.108-.014-.162l-.086-.638q.1.826.048.324a21.451 21.451 0 0 0-.917-4.016q-1.265-4.31-2.362-8.666c-5.154-20.46-6.9-41.679-13.757-61.715a127.571 127.571 0 0 0-6.81-16.767 20.3 20.3 0 0 0-5.086-6.348 31.706 31.706 0 0 0-7.941-4.433c-5.662-2.426-11.527-4.261-17.342-6.271-2.948-1.019-5.883-2.092-8.737-3.354a100.35 100.35 0 0 1-4.36-2.07 20.619 20.619 0 0 0-4.19-1.864 26.881 26.881 0 0 0-8.623-.261 2.462 2.462 0 0 0-2.4 2.4 2.419 2.419 0 0 0 2.4 2.4z"/></g><path d="M132.427,371.6c-9.831-12.279-18.921-17.321-27.9-30.237-2.107-3.031-4.006-6.38-3.851-10.2a7.692,7.692,0,0,1,2.539-5.595c3.8-3.239,9.2-1.051,13.283,1.417,13.961,8.43,26.937,20.171,43.133,22.086" fill="#fff"/><path d="M134.124,369.9c-4.993-6.2-10.849-11.5-16.526-17.054a99.937,99.937,0,0,1-7.93-8.594c-2.4-2.969-5.153-6.327-6.215-10.061-.84-2.95-.315-6.872,3.158-7.724,3.213-.788,6.758,1.41,9.368,3.01,6.628,4.061,12.879,8.7,19.516,12.75,7.455,4.544,15.4,8.165,24.137,9.243a2.413,2.413,0,0,0,2.4-2.4,2.46,2.46,0,0,0-2.4-2.4c-16.372-2.021-28.838-14.254-42.577-22.145-3.442-1.977-7.524-3.609-11.548-2.728-4.313.943-6.955,4.954-7.219,9.178-.27,4.339,1.9,8.351,4.305,11.793a87.556,87.556,0,0,0,8.533,10.371c6.5,6.788,13.69,12.807,19.6,20.155a2.416,2.416,0,0,0,3.394,0,2.456,2.456,0,0,0,0-3.394Z" fill="#211715"/><path d="M11.075 3.03a12.268 12.268 0 0 1 3.592-.537L156.1 2.4a12.878 12.878 0 0 1 12.888 12.852l.674 221.883a12.218 12.218 0 0 1-10.133 12.077c-.31.053-143.724.753-144.076.754h-.135A12.877 12.877 0 0 1 2.4 237.079l.051-222.364A12.221 12.221 0 0 1 11.075 3.03z" fill="#fff"/><path d="M26.333 29.562l-.014 40.842a2.338 2.338 0 0 0 2.342 2.341l113.612-.075a2.335 2.335 0 0 0 2.335-2.342l-.039-40.635a2.331 2.331 0 0 0-2.335-2.336l-113.557-.131a2.336 2.336 0 0 0-2.344 2.336z" fill="#bce2ef"/><g fill="#e2e2e2"><use xlinkHref="#B"/><path d="M70.067 92.13l-.007 11.992a2.339 2.339 0 0 0 2.341 2.346l26.129-.034a2.338 2.338 0 0 0 2.335-2.344v-11.9a2.341 2.341 0 0 0-2.335-2.346l-26.121-.062a2.34 2.34 0 0 0-2.342 2.348z"/><use xlinkHref="#B" x="87.483"/><use xlinkHref="#C"/><path d="M70.067 118.975l-.007 11.992a2.339 2.339 0 0 0 2.341 2.346l26.129-.033a2.339 2.339 0 0 0 2.335-2.345v-11.9a2.341 2.341 0 0 0-2.335-2.346l-26.121-.062a2.34 2.34 0 0 0-2.342 2.348z"/><use xlinkHref="#C" x="87.483"/><use xlinkHref="#D"/><path d="M70.067 145.673l-.007 11.992a2.339 2.339 0 0 0 2.341 2.346l26.129-.034a2.338 2.338 0 0 0 2.335-2.344v-11.9a2.342 2.342 0 0 0-2.335-2.347l-26.121-.062a2.341 2.341 0 0 0-2.342 2.349zm0 28.557l-.007 11.992a2.34 2.34 0 0 0 2.341 2.347l26.129-.034a2.339 2.339 0 0 0 2.335-2.345v-11.9a2.341 2.341 0 0 0-2.335-2.346l-26.121-.062a2.34 2.34 0 0 0-2.342 2.348zm0 27.229l-.007 11.992a2.339 2.339 0 0 0 2.34 2.349l26.129-.034a2.338 2.338 0 0 0 2.335-2.344v-11.9a2.341 2.341 0 0 0-2.335-2.346l-26.121-.063a2.341 2.341 0 0 0-2.341 2.346z"/><use xlinkHref="#D" x="87.483"/><path d="M26.325 174.226l-.007 38.418a2.336 2.336 0 0 0 2.341 2.342l26.129-.034a2.331 2.331 0 0 0 2.335-2.337v-38.4a2.339 2.339 0 0 0-2.344-2.337h-26.11a2.344 2.344 0 0 0-2.344 2.348zm87.483 0l-.006 38.418a2.335 2.335 0 0 0 2.34 2.342l26.13-.034a2.331 2.331 0 0 0 2.334-2.337v-38.4a2.338 2.338 0 0 0-2.344-2.337h-26.11a2.344 2.344 0 0 0-2.344 2.348z"/></g><path d="M11.713 5.345c3.151-.9 6.862-.454 10.126-.456l9.961-.006 23.82-.016 53.58-.037 44.962-.03a17.043 17.043 0 0 1 4.99.447 10.547 10.547 0 0 1 4.8 3.078 10.44 10.44 0 0 1 2.495 5.178 22.864 22.864 0 0 1 .146 3.944q.02 7.817.043 15.632.058 20.881.125 41.762.076 24.743.155 49.484.079 24.838.158 49.676.066 21.108.129 42.218.024 8.044.046 16.089c.008 2.6.322 5.429-.474 7.932a9.794 9.794 0 0 1-3.228 4.639 9.955 9.955 0 0 1-2.343 1.381 10.333 10.333 0 0 1-1.309.42c-.24.063-.99.177-.377.131-1.187.089-2.4.023-3.595.031q-4.588.03-9.178.055-15.039.086-30.078.161-18.891.1-37.782.193l-35.584.177-23.562.116-4.2.02A10.488 10.488 0 0 1 5.16 239.82a16.4 16.4 0 0 1-.36-4.366q0-17.06.008-34.12.006-23.019.011-46.039l.012-50.458q.006-23.69.011-47.377 0-18.4.008-36.8c0-2.272-.131-4.592.036-6.858a9.874 9.874 0 0 1 6.827-8.461C14.641 4.4 13.389-.237 10.437.716A14.893 14.893 0 0 0 .65 10.56c-.87 2.9-.6 6.079-.6 9.08v16.552q0 21.743-.01 43.483l-.015 50.474-.012 49.788q0 20.707-.01 41.415v15.087a15.75 15.75 0 0 0 4.837 11.8 15.59 15.59 0 0 0 10.641 4.125l13.459-.065 31.031-.154q19.32-.1 38.64-.194 17.745-.09 35.489-.185 11.179-.06 22.36-.128a18.865 18.865 0 0 0 4.711-.329 14.8 14.8 0 0 0 10.011-9.157c1.116-2.972.877-6.189.869-9.3q-.05-18.145-.107-36.29-.073-23.8-.149-47.6-.081-25.581-.162-51.163-.075-23.52-.146-47.038-.051-17.424-.1-34.847a15.768 15.768 0 0 0-4.839-11.787C163.168 1 159.084 0 154.6 0l-20.311.013q-26.2.017-52.4.036L30.825.083 21.116.09c-3.514 0-7.275-.351-10.679.626-2.964.851-1.704 5.484 1.276 4.629zm136.506 229.396q-22.945.079-45.89.192-25.306.115-50.613.231-12.468.055-24.937.1c-3.088.011-3.095 4.811 0 4.8q23.406-.087 46.812-.2 25.176-.117 50.354-.229 12.137-.053 24.274-.1c3.088-.011 3.094-4.811 0-4.8zM23.933 29.562q0 11.991-.009 23.982 0 6.291 0 12.583c0 1.809-.322 4.011.243 5.748a4.854 4.854 0 0 0 4.638 3.27c6.955.232 13.961-.01 20.919-.015l33.242-.024 34.246-.022q11.958-.008 23.918-.014a6.794 6.794 0 0 0 3.489-.625c2.138-1.2 2.393-3.341 2.392-5.553q0-7.161-.011-14.322l-.027-24.541A4.883 4.883 0 0 0 143.7 25.2a9.4 9.4 0 0 0-2.938-.245h-4.679l-12.678-.013-33.726-.042-35.015-.044q-12.263-.015-24.526-.027a10.5 10.5 0 0 0-2.611.147 4.87 4.87 0 0 0-3.594 4.588 2.421 2.421 0 0 0 2.4 2.4 2.448 2.448 0 0 0 2.4-2.4c.011-.152-.038.075-.109.094a.662.662 0 0 1 .28-.03 4.99 4.99 0 0 0 .847 0h2 4.826l12.509.015q16.307.018 32.613.04l33.665.041q12.276.015 24.553.027c.65 0 1.305.024 1.954 0 .446-.016.339.113.267-.114a8.235 8.235 0 0 1 .032 2.119q0 5.637.012 11.276.017 13.166.025 26.333a4.3 4.3 0 0 1-.029 1.009c.014-.049.257-.145.095-.11a4.6 4.6 0 0 1-.894 0h-1.9-4.723l-12.351.007-31.773.029-33.078.023-24.477.018h-3.628a5.755 5.755 0 0 0-.7 0c-.093.012-.1-.027-.158-.048.284.1.081.287.123-.27.14-1.883 0-3.83 0-5.718q0-11.982.01-23.964V29.558c.009-3.084-4.791-3.09-4.791.004zm-.008 62.568c0 4.028-.253 8.147.007 12.165a4.815 4.815 0 0 0 3.577 4.426 16.282 16.282 0 0 0 3.98.143q9.466-.013 18.932-.026c3.2 0 7.424.633 8.8-3.122.655-1.787.3-4.084.3-5.965q0-2.361 0-4.723c0-1.707.257-3.641-.624-5.18a5.1 5.1 0 0 0-4.788-2.4q-4.776-.008-9.55-.022-5.783-.015-11.565-.03c-1.493 0-3.012-.087-4.5 0a4.851 4.851 0 0 0-4.568 4.735 2.421 2.421 0 0 0 2.4 2.4 2.446 2.446 0 0 0 2.4-2.4c-.007.1-.287-.013.191.053a12.586 12.586 0 0 0 1.625 0l3.782.009 8.744.023 8.18.02a17.88 17.88 0 0 1 3.539.007c.183.04-.121-.244-.064-.054a9.011 9.011 0 0 1 0 2.214q0 4.361 0 8.72c0 .159.025.84-.006.984-.022.1-.328.063.134-.125a3.261 3.261 0 0 1-1.074.051h-3.514q-8.227.009-16.453.022h-3.607a6.215 6.215 0 0 0-1.343 0c-.275.068-.145 0-.265-.049.25.111.136.417.124-.381l.006-11.508c.001-3.075-4.799-3.081-4.8.013zm43.742 0c0 4.028-.254 8.147.006 12.165a4.817 4.817 0 0 0 3.578 4.426 16.28 16.28 0 0 0 3.98.143q9.465-.013 18.931-.026c3.2 0 7.424.633 8.8-3.122.655-1.787.3-4.084.3-5.965v-4.723c0-1.707.257-3.641-.624-5.18a5.105 5.105 0 0 0-4.789-2.4q-4.774-.008-9.55-.022l-11.564-.03c-1.494 0-3.013-.087-4.5 0a4.85 4.85 0 0 0-4.567 4.735 2.421 2.421 0 0 0 2.4 2.4 2.448 2.448 0 0 0 2.4-2.4c-.008.1-.288-.013.19.053a12.586 12.586 0 0 0 1.625 0l3.783.009 8.744.023 8.179.02a17.89 17.89 0 0 1 3.54.007c.182.04-.121-.244-.065-.054a8.962 8.962 0 0 1 0 2.214q0 4.361 0 8.72c0 .159.024.84-.007.984-.022.1-.327.063.134-.125a3.255 3.255 0 0 1-1.073.051h-3.515q-8.226.009-16.453.022h-3.606a6.225 6.225 0 0 0-1.344 0c-.274.068-.145 0-.265-.049.251.111.136.417.124-.381l.007-11.508c.001-3.075-4.799-3.081-4.799.013zm43.741 0c0 4.028-.253 8.147.006 12.165a4.817 4.817 0 0 0 3.578 4.426 16.28 16.28 0 0 0 3.98.143q9.467-.013 18.931-.026c3.205 0 7.425.633 8.8-3.122.655-1.787.3-4.084.3-5.965q0-2.361 0-4.723c0-1.707.257-3.641-.624-5.18a5.1 5.1 0 0 0-4.788-2.4q-4.776-.008-9.55-.022-5.783-.015-11.565-.03c-1.493 0-3.012-.087-4.5 0a4.851 4.851 0 0 0-4.567 4.735 2.421 2.421 0 0 0 2.4 2.4 2.446 2.446 0 0 0 2.4-2.4c-.007.1-.287-.013.191.053a12.586 12.586 0 0 0 1.625 0l3.782.009 8.744.023 8.18.02a17.88 17.88 0 0 1 3.539.007c.183.04-.121-.244-.064-.054a9.011 9.011 0 0 1 0 2.214q0 4.361 0 8.72c0 .159.025.84-.006.984-.022.1-.328.063.134-.125a3.261 3.261 0 0 1-1.074.051h-3.515q-8.226.009-16.452.022h-3.607a6.215 6.215 0 0 0-1.343 0c-.275.068-.145 0-.266-.049.251.111.137.417.125-.381l.006-11.508c.001-3.075-4.799-3.081-4.8.013zm-87.483 26.845c0 4.029-.253 8.147.007 12.166a4.815 4.815 0 0 0 3.577 4.425 16.282 16.282 0 0 0 3.98.143q9.466-.014 18.932-.025c3.2 0 7.424.633 8.8-3.123.655-1.787.3-4.084.3-5.965q0-2.361 0-4.723c0-1.707.257-3.64-.624-5.18a5.1 5.1 0 0 0-4.788-2.4q-4.776-.007-9.55-.022-5.783-.015-11.565-.03c-1.493 0-3.012-.087-4.5 0a4.852 4.852 0 0 0-4.568 4.735 2.421 2.421 0 0 0 2.4 2.4 2.446 2.446 0 0 0 2.4-2.4c-.007.1-.287-.012.191.053a12.409 12.409 0 0 0 1.625 0l3.782.009 8.744.023q4.09.01 8.18.02a17.88 17.88 0 0 1 3.539.007c.183.041-.121-.244-.064-.054a9.011 9.011 0 0 1 0 2.214q0 4.361 0 8.721c0 .158.025.839-.006.983-.022.1-.328.063.134-.125a3.261 3.261 0 0 1-1.074.051h-3.514q-8.227.009-16.453.022h-3.607a6.215 6.215 0 0 0-1.343 0c-.275.068-.145 0-.265-.049.25.111.136.418.124-.381l.006-11.508c.001-3.075-4.799-3.08-4.8.013zm43.742 0c0 4.029-.254 8.147.006 12.166a4.817 4.817 0 0 0 3.578 4.425 16.28 16.28 0 0 0 3.98.143q9.465-.014 18.931-.025c3.2 0 7.424.633 8.8-3.123.655-1.787.3-4.084.3-5.965v-4.723c0-1.707.257-3.64-.624-5.18a5.105 5.105 0 0 0-4.789-2.4q-4.774-.007-9.55-.022l-11.564-.03c-1.494 0-3.013-.087-4.5 0a4.851 4.851 0 0 0-4.567 4.735 2.42 2.42 0 0 0 2.4 2.4 2.448 2.448 0 0 0 2.4-2.4c-.008.1-.288-.012.19.053a12.409 12.409 0 0 0 1.625 0l3.783.009 8.744.023q4.089.01 8.179.02a17.89 17.89 0 0 1 3.54.007c.182.041-.121-.244-.065-.054a8.962 8.962 0 0 1 0 2.214q0 4.361 0 8.721c0 .158.024.839-.007.983-.022.1-.327.063.134-.125a3.255 3.255 0 0 1-1.073.051h-3.515q-8.226.009-16.453.022h-3.606a6.225 6.225 0 0 0-1.344 0c-.274.068-.145 0-.265-.049.251.111.136.418.124-.381l.007-11.508c.001-3.075-4.799-3.08-4.799.013zm43.741 0c0 4.029-.253 8.147.006 12.166a4.817 4.817 0 0 0 3.578 4.425 16.28 16.28 0 0 0 3.98.143q9.467-.014 18.931-.025c3.205 0 7.425.633 8.8-3.123.655-1.787.3-4.084.3-5.965q0-2.361 0-4.723c0-1.707.257-3.64-.624-5.18a5.1 5.1 0 0 0-4.788-2.4q-4.776-.007-9.55-.022-5.783-.015-11.565-.03c-1.493 0-3.012-.087-4.5 0a4.852 4.852 0 0 0-4.567 4.735 2.421 2.421 0 0 0 2.4 2.4 2.446 2.446 0 0 0 2.4-2.4c-.007.1-.287-.012.191.053a12.409 12.409 0 0 0 1.625 0l3.782.009 8.744.023q4.09.01 8.18.02a17.88 17.88 0 0 1 3.539.007c.183.041-.121-.244-.064-.054a9.011 9.011 0 0 1 0 2.214q0 4.361 0 8.721c0 .158.025.839-.006.983-.022.1-.328.063.134-.125a3.261 3.261 0 0 1-1.074.051h-3.515q-8.226.009-16.452.022h-3.607a6.215 6.215 0 0 0-1.343 0c-.275.068-.145 0-.266-.049.251.111.137.418.125-.381l.006-11.508c.001-3.075-4.799-3.08-4.8.013zm-87.483 26.698c0 4.028-.253 8.147.007 12.165a4.814 4.814 0 0 0 3.577 4.425 16.282 16.282 0 0 0 3.98.144q9.466-.015 18.932-.026c3.2 0 7.424.633 8.8-3.123.655-1.786.3-4.083.3-5.964q0-2.363 0-4.724c0-1.706.257-3.64-.624-5.179a5.105 5.105 0 0 0-4.788-2.405q-4.776-.007-9.55-.021l-11.565-.031c-1.493 0-3.012-.087-4.5 0a4.85 4.85 0 0 0-4.568 4.735 2.421 2.421 0 0 0 2.4 2.4 2.446 2.446 0 0 0 2.4-2.4c-.007.1-.287-.013.191.053a12.586 12.586 0 0 0 1.625 0l3.782.009 8.744.023 8.18.02a17.805 17.805 0 0 1 3.539.006c.183.041-.121-.243-.064-.053a9 9 0 0 1 0 2.213q0 4.361 0 8.721c0 .158.025.839-.006.984-.022.1-.328.062.134-.126a3.26 3.26 0 0 1-1.074.052h-3.514q-8.227.009-16.453.022l-3.607.006a6.091 6.091 0 0 0-1.343 0c-.275.068-.145 0-.265-.049.25.111.136.417.124-.382l.006-11.507c.001-3.077-4.799-3.082-4.8.012zm43.742 0c0 4.028-.254 8.147.006 12.165a4.816 4.816 0 0 0 3.578 4.425 16.28 16.28 0 0 0 3.98.144q9.465-.015 18.931-.026c3.2 0 7.424.633 8.8-3.123.655-1.786.3-4.083.3-5.964v-4.724c0-1.706.257-3.64-.624-5.179a5.106 5.106 0 0 0-4.789-2.405q-4.774-.007-9.55-.021l-11.564-.031c-1.494 0-3.013-.087-4.5 0a4.849 4.849 0 0 0-4.567 4.735 2.421 2.421 0 0 0 2.4 2.4 2.448 2.448 0 0 0 2.4-2.4c-.008.1-.288-.013.19.053a12.586 12.586 0 0 0 1.625 0q1.892 0 3.783.009l8.744.023 8.179.02a17.815 17.815 0 0 1 3.54.006c.182.041-.121-.243-.065-.053a8.954 8.954 0 0 1 0 2.213q0 4.361 0 8.721c0 .158.024.839-.007.984-.022.1-.327.062.134-.126a3.254 3.254 0 0 1-1.073.052h-3.515q-8.226.009-16.453.022l-3.606.006a6.1 6.1 0 0 0-1.344 0c-.274.068-.145 0-.265-.049.251.111.136.417.124-.382l.007-11.507c.001-3.077-4.799-3.082-4.799.012zm0 28.557c0 4.029-.254 8.147.006 12.166a4.817 4.817 0 0 0 3.578 4.425 16.28 16.28 0 0 0 3.98.143q9.465-.013 18.931-.025c3.2 0 7.424.633 8.8-3.123.655-1.787.3-4.084.3-5.964v-4.724c0-1.707.257-3.64-.624-5.18a5.105 5.105 0 0 0-4.789-2.4q-4.774-.008-9.55-.022l-11.564-.03c-1.494 0-3.013-.087-4.5 0a4.851 4.851 0 0 0-4.567 4.735 2.42 2.42 0 0 0 2.4 2.4 2.448 2.448 0 0 0 2.4-2.4c-.008.1-.288-.012.19.053a12.409 12.409 0 0 0 1.625 0l3.783.009 8.744.023q4.089.01 8.179.02a17.89 17.89 0 0 1 3.54.007c.182.041-.121-.244-.065-.054a8.962 8.962 0 0 1 0 2.214q0 4.361 0 8.721c0 .158.024.839-.007.984-.022.1-.327.062.134-.126a3.255 3.255 0 0 1-1.073.051h-3.515q-8.226.009-16.453.022h-3.606a6.225 6.225 0 0 0-1.344 0c-.274.068-.145 0-.265-.049.251.111.136.418.124-.381l.007-11.508c.001-3.075-4.799-3.08-4.799.013zm0 27.229c0 4.028-.254 8.147.006 12.165a4.817 4.817 0 0 0 3.578 4.426 16.329 16.329 0 0 0 3.98.143q9.465-.015 18.931-.026c3.2 0 7.424.633 8.8-3.122.655-1.787.3-4.084.3-5.965v-4.723c0-1.707.257-3.641-.624-5.18a5.108 5.108 0 0 0-4.789-2.405q-4.774-.007-9.55-.021l-11.564-.03c-1.494 0-3.013-.088-4.5 0a4.849 4.849 0 0 0-4.567 4.735 2.421 2.421 0 0 0 2.4 2.4 2.448 2.448 0 0 0 2.4-2.4c-.008.1-.288-.013.19.053a12.586 12.586 0 0 0 1.625 0l3.783.009 8.744.023 8.179.02a17.815 17.815 0 0 1 3.54.007c.182.04-.121-.244-.065-.054a8.954 8.954 0 0 1 0 2.213q0 4.36 0 8.721c0 .158.024.839-.007.984-.022.1-.327.063.134-.125a3.255 3.255 0 0 1-1.073.051h-3.515l-16.453.022-3.606.006a6.162 6.162 0 0 0-1.344 0c-.274.068-.145 0-.265-.049.251.111.136.417.124-.381l.007-11.508c.001-3.078-4.799-3.083-4.799.011zm43.741-55.786c0 4.028-.253 8.147.006 12.165a4.816 4.816 0 0 0 3.578 4.425 16.28 16.28 0 0 0 3.98.144q9.467-.015 18.931-.026c3.205 0 7.425.633 8.8-3.123.655-1.786.3-4.083.3-5.964q0-2.363 0-4.724c0-1.706.257-3.64-.624-5.179a5.105 5.105 0 0 0-4.788-2.405q-4.776-.007-9.55-.021l-11.565-.031c-1.493 0-3.012-.087-4.5 0a4.85 4.85 0 0 0-4.567 4.735 2.421 2.421 0 0 0 2.4 2.4 2.446 2.446 0 0 0 2.4-2.4c-.007.1-.287-.013.191.053a12.586 12.586 0 0 0 1.625 0l3.782.009 8.744.023 8.18.02a17.805 17.805 0 0 1 3.539.006c.183.041-.121-.243-.064-.053a9 9 0 0 1 0 2.213q0 4.361 0 8.721c0 .158.025.839-.006.984-.022.1-.328.062.134-.126a3.26 3.26 0 0 1-1.074.052h-3.515q-8.226.009-16.452.022l-3.607.006a6.091 6.091 0 0 0-1.343 0c-.275.068-.145 0-.266-.049.251.111.137.417.125-.382l.006-11.507c.001-3.077-4.799-3.082-4.8.012zm-87.483 28.553q0 17.9-.006 35.808a13.493 13.493 0 0 0 .243 4.082 4.843 4.843 0 0 0 4.6 3.27l7.793-.012 9.86-.013 8.376-.009a4.853 4.853 0 0 0 4.551-3.423 12.341 12.341 0 0 0 .184-3.344V177.8c0-2.525.435-5.44-1.752-7.233a6.115 6.115 0 0 0-4.212-1.087H30.444a11.794 11.794 0 0 0-3.09.185 4.876 4.876 0 0 0-3.429 4.558 2.421 2.421 0 0 0 2.4 2.4 2.446 2.446 0 0 0 2.4-2.4c-.009.124-.2-.009.141.057a5.73 5.73 0 0 0 1.023 0h21.747a17.268 17.268 0 0 0 2.921 0c.337-.062.2.131.152-.1a11.41 11.41 0 0 1 .014 2.279v33.481a16.661 16.661 0 0 0 0 2.427.519.519 0 0 1-.047.308c.047-.112.274-.161.112-.125a8.435 8.435 0 0 1-1.689 0h-3.97l-8.938.011-8.29.012a16.44 16.44 0 0 0-3.042.005c-.17.034-.329-.1-.179.038s.013.055.038-.094a9.756 9.756 0 0 0 0-1.576q0-16.749 0-33.5 0-1.615 0-3.231c.007-3.077-4.793-3.082-4.793.011zm87.483 0q0 17.9-.006 35.808a13.525 13.525 0 0 0 .243 4.082 4.843 4.843 0 0 0 4.6 3.27l7.793-.012 9.86-.013 8.377-.009a4.852 4.852 0 0 0 4.55-3.423 12.341 12.341 0 0 0 .184-3.344V177.8c0-2.525.435-5.44-1.752-7.233a6.113 6.113 0 0 0-4.212-1.087h-23.117a11.8 11.8 0 0 0-3.091.185 4.877 4.877 0 0 0-3.429 4.558 2.421 2.421 0 0 0 2.4 2.4 2.446 2.446 0 0 0 2.4-2.4c-.009.124-.2-.009.141.057a5.73 5.73 0 0 0 1.023 0h21.747a17.268 17.268 0 0 0 2.921 0c.337-.062.2.131.153-.1a11.485 11.485 0 0 1 .013 2.279v33.481a16.661 16.661 0 0 0 0 2.427.519.519 0 0 1-.047.308c.048-.112.274-.161.113-.125a8.435 8.435 0 0 1-1.689 0h-3.971l-8.937.011-8.29.012a16.439 16.439 0 0 0-3.042.005c-.171.034-.33-.1-.179.038s.012.055.038-.094a9.872 9.872 0 0 0 0-1.576q0-16.749.006-33.5v-3.231c.001-3.077-4.799-3.082-4.8.011z" fill="#211715"/><defs ><path id="B" d="M26.325 92.13l-.006 11.992a2.339 2.339 0 0 0 2.34 2.346l26.13-.034a2.337 2.337 0 0 0 2.334-2.344v-11.9a2.342 2.342 0 0 0-2.336-2.346l-26.12-.062a2.341 2.341 0 0 0-2.342 2.348z"/><path id="C" d="M26.325 118.975l-.006 11.992a2.339 2.339 0 0 0 2.34 2.346l26.13-.033a2.338 2.338 0 0 0 2.334-2.345v-11.9a2.342 2.342 0 0 0-2.336-2.346l-26.12-.062a2.341 2.341 0 0 0-2.342 2.348z"/><path id="D" d="M26.325 145.673l-.006 11.992a2.339 2.339 0 0 0 2.34 2.346l26.13-.034a2.337 2.337 0 0 0 2.334-2.344v-11.9a2.342 2.342 0 0 0-2.336-2.347l-26.12-.062a2.342 2.342 0 0 0-2.342 2.349z"/></defs></svg>